<svg xmlns="http://www.w3.org/2000/svg" viewBox="201 244 80.5 86.5" width="1000" height="1075" font-family="system-ui, sans-serif">
<title>Real World: seed hillink</title>
<rect x="200" y="240" width="4.05" height="4.05" fill="rgb(185,200,136)"/>
<rect x="204" y="240" width="4.05" height="4.05" fill="rgb(185,200,136)"/>
<rect x="208" y="240" width="4.05" height="4.05" fill="rgb(185,200,136)"/>
<rect x="212" y="240" width="4.05" height="4.05" fill="rgb(184,200,135)"/>
<rect x="216" y="240" width="4.05" height="4.05" fill="rgb(184,199,135)"/>
<rect x="220" y="240" width="4.05" height="4.05" fill="rgb(183,199,135)"/>
<rect x="224" y="240" width="4.05" height="4.05" fill="rgb(183,199,134)"/>
<rect x="228" y="240" width="4.05" height="4.05" fill="rgb(183,199,134)"/>
<rect x="232" y="240" width="4.05" height="4.05" fill="rgb(182,199,134)"/>
<rect x="236" y="240" width="4.05" height="4.05" fill="rgb(181,199,133)"/>
<rect x="240" y="240" width="4.05" height="4.05" fill="rgb(181,199,133)"/>
<rect x="244" y="240" width="4.05" height="4.05" fill="rgb(180,199,132)"/>
<rect x="248" y="240" width="4.05" height="4.05" fill="rgb(179,198,131)"/>
<rect x="252" y="240" width="4.05" height="4.05" fill="rgb(179,198,131)"/>
<rect x="256" y="240" width="4.05" height="4.05" fill="rgb(178,198,130)"/>
<rect x="260" y="240" width="4.05" height="4.05" fill="rgb(177,198,130)"/>
<rect x="264" y="240" width="4.05" height="4.05" fill="rgb(177,198,129)"/>
<rect x="268" y="240" width="4.05" height="4.05" fill="rgb(176,198,129)"/>
<rect x="272" y="240" width="4.05" height="4.05" fill="rgb(176,198,128)"/>
<rect x="276" y="240" width="4.05" height="4.05" fill="rgb(175,198,128)"/>
<rect x="280" y="240" width="4.05" height="4.05" fill="rgb(175,197,128)"/>
<rect x="284" y="240" width="4.05" height="4.05" fill="rgb(174,197,127)"/>
<rect x="200" y="244" width="4.05" height="4.05" fill="rgb(186,200,137)"/>
<rect x="204" y="244" width="4.05" height="4.05" fill="rgb(185,200,136)"/>
<rect x="208" y="244" width="4.05" height="4.05" fill="rgb(185,200,136)"/>
<rect x="212" y="244" width="4.05" height="4.05" fill="rgb(184,199,135)"/>
<rect x="216" y="244" width="4.05" height="4.05" fill="rgb(183,199,135)"/>
<rect x="220" y="244" width="4.05" height="4.05" fill="rgb(183,199,134)"/>
<rect x="224" y="244" width="4.05" height="4.05" fill="rgb(182,199,134)"/>
<rect x="228" y="244" width="4.05" height="4.05" fill="rgb(182,199,133)"/>
<rect x="232" y="244" width="4.05" height="4.05" fill="rgb(181,199,133)"/>
<rect x="236" y="244" width="4.05" height="4.05" fill="rgb(181,199,132)"/>
<rect x="240" y="244" width="4.05" height="4.05" fill="rgb(180,199,132)"/>
<rect x="244" y="244" width="4.05" height="4.05" fill="rgb(180,199,132)"/>
<rect x="248" y="244" width="4.05" height="4.05" fill="rgb(179,198,131)"/>
<rect x="252" y="244" width="4.05" height="4.05" fill="rgb(178,198,131)"/>
<rect x="256" y="244" width="4.05" height="4.05" fill="rgb(178,198,130)"/>
<rect x="260" y="244" width="4.05" height="4.05" fill="rgb(177,198,129)"/>
<rect x="264" y="244" width="4.05" height="4.05" fill="rgb(176,198,129)"/>
<rect x="268" y="244" width="4.05" height="4.05" fill="rgb(176,198,129)"/>
<rect x="272" y="244" width="4.05" height="4.05" fill="rgb(176,198,129)"/>
<rect x="276" y="244" width="4.05" height="4.05" fill="rgb(176,198,128)"/>
<rect x="280" y="244" width="4.05" height="4.05" fill="rgb(176,198,128)"/>
<rect x="284" y="244" width="4.05" height="4.05" fill="rgb(175,198,128)"/>
<rect x="200" y="248" width="4.05" height="4.05" fill="rgb(186,200,137)"/>
<rect x="204" y="248" width="4.05" height="4.05" fill="rgb(185,200,136)"/>
<rect x="208" y="248" width="4.05" height="4.05" fill="rgb(185,200,136)"/>
<rect x="212" y="248" width="4.05" height="4.05" fill="rgb(184,199,135)"/>
<rect x="216" y="248" width="4.05" height="4.05" fill="rgb(183,199,134)"/>
<rect x="220" y="248" width="4.05" height="4.05" fill="rgb(182,199,134)"/>
<rect x="224" y="248" width="4.05" height="4.05" fill="rgb(181,199,133)"/>
<rect x="228" y="248" width="4.05" height="4.05" fill="rgb(181,199,133)"/>
<rect x="232" y="248" width="4.05" height="4.05" fill="rgb(180,199,132)"/>
<rect x="236" y="248" width="4.05" height="4.05" fill="rgb(180,199,132)"/>
<rect x="240" y="248" width="4.05" height="4.05" fill="rgb(180,199,132)"/>
<rect x="244" y="248" width="4.05" height="4.05" fill="rgb(179,198,131)"/>
<rect x="248" y="248" width="4.05" height="4.05" fill="rgb(179,198,131)"/>
<rect x="252" y="248" width="4.05" height="4.05" fill="rgb(178,198,130)"/>
<rect x="256" y="248" width="4.05" height="4.05" fill="rgb(177,198,130)"/>
<rect x="260" y="248" width="4.05" height="4.05" fill="rgb(177,198,129)"/>
<rect x="264" y="248" width="4.05" height="4.05" fill="rgb(177,198,129)"/>
<rect x="268" y="248" width="4.05" height="4.05" fill="rgb(176,198,129)"/>
<rect x="272" y="248" width="4.05" height="4.05" fill="rgb(176,198,129)"/>
<rect x="276" y="248" width="4.05" height="4.05" fill="rgb(176,198,129)"/>
<rect x="280" y="248" width="4.05" height="4.05" fill="rgb(176,198,129)"/>
<rect x="284" y="248" width="4.05" height="4.05" fill="rgb(176,198,129)"/>
<rect x="200" y="252" width="4.05" height="4.05" fill="rgb(187,200,137)"/>
<rect x="204" y="252" width="4.05" height="4.05" fill="rgb(186,200,137)"/>
<rect x="208" y="252" width="4.05" height="4.05" fill="rgb(185,200,136)"/>
<rect x="212" y="252" width="4.05" height="4.05" fill="rgb(183,199,135)"/>
<rect x="216" y="252" width="4.05" height="4.05" fill="rgb(182,199,134)"/>
<rect x="220" y="252" width="4.05" height="4.05" fill="rgb(181,199,133)"/>
<rect x="224" y="252" width="4.05" height="4.05" fill="rgb(181,199,132)"/>
<rect x="228" y="252" width="4.05" height="4.05" fill="rgb(180,199,132)"/>
<rect x="232" y="252" width="4.05" height="4.05" fill="rgb(180,199,132)"/>
<rect x="236" y="252" width="4.05" height="4.05" fill="rgb(180,199,132)"/>
<rect x="240" y="252" width="4.05" height="4.05" fill="rgb(179,198,131)"/>
<rect x="244" y="252" width="4.05" height="4.05" fill="rgb(179,198,131)"/>
<rect x="248" y="252" width="4.05" height="4.05" fill="rgb(178,198,131)"/>
<rect x="252" y="252" width="4.05" height="4.05" fill="rgb(178,198,130)"/>
<rect x="256" y="252" width="4.05" height="4.05" fill="rgb(177,198,130)"/>
<rect x="260" y="252" width="4.05" height="4.05" fill="rgb(177,198,129)"/>
<rect x="264" y="252" width="4.05" height="4.05" fill="rgb(177,198,129)"/>
<rect x="268" y="252" width="4.05" height="4.05" fill="rgb(177,198,129)"/>
<rect x="272" y="252" width="4.05" height="4.05" fill="rgb(177,198,129)"/>
<rect x="276" y="252" width="4.05" height="4.05" fill="rgb(177,198,129)"/>
<rect x="280" y="252" width="4.05" height="4.05" fill="rgb(177,198,130)"/>
<rect x="284" y="252" width="4.05" height="4.05" fill="rgb(177,198,129)"/>
<rect x="200" y="256" width="4.05" height="4.05" fill="rgb(187,200,137)"/>
<rect x="204" y="256" width="4.05" height="4.05" fill="rgb(186,200,137)"/>
<rect x="208" y="256" width="4.05" height="4.05" fill="rgb(184,200,136)"/>
<rect x="212" y="256" width="4.05" height="4.05" fill="rgb(183,199,134)"/>
<rect x="216" y="256" width="4.05" height="4.05" fill="rgb(182,199,134)"/>
<rect x="220" y="256" width="4.05" height="4.05" fill="rgb(181,199,133)"/>
<rect x="224" y="256" width="4.05" height="4.05" fill="rgb(180,199,132)"/>
<rect x="228" y="256" width="4.05" height="4.05" fill="rgb(180,199,132)"/>
<rect x="232" y="256" width="4.05" height="4.05" fill="rgb(180,199,132)"/>
<rect x="236" y="256" width="4.05" height="4.05" fill="rgb(179,198,131)"/>
<rect x="240" y="256" width="4.05" height="4.05" fill="rgb(179,198,131)"/>
<rect x="244" y="256" width="4.05" height="4.05" fill="rgb(179,198,131)"/>
<rect x="248" y="256" width="4.05" height="4.05" fill="rgb(178,198,130)"/>
<rect x="252" y="256" width="4.05" height="4.05" fill="rgb(178,198,130)"/>
<rect x="256" y="256" width="4.05" height="4.05" fill="rgb(177,198,130)"/>
<rect x="260" y="256" width="4.05" height="4.05" fill="rgb(177,198,129)"/>
<rect x="264" y="256" width="4.05" height="4.05" fill="rgb(177,198,129)"/>
<rect x="268" y="256" width="4.05" height="4.05" fill="rgb(177,198,129)"/>
<rect x="272" y="256" width="4.05" height="4.05" fill="rgb(177,198,130)"/>
<rect x="276" y="256" width="4.05" height="4.05" fill="rgb(178,198,130)"/>
<rect x="280" y="256" width="4.05" height="4.05" fill="rgb(178,198,130)"/>
<rect x="284" y="256" width="4.05" height="4.05" fill="rgb(178,198,130)"/>
<rect x="200" y="260" width="4.05" height="4.05" fill="rgb(186,200,137)"/>
<rect x="204" y="260" width="4.05" height="4.05" fill="rgb(185,200,136)"/>
<rect x="208" y="260" width="4.05" height="4.05" fill="rgb(184,199,135)"/>
<rect x="212" y="260" width="4.05" height="4.05" fill="rgb(183,199,134)"/>
<rect x="216" y="260" width="4.05" height="4.05" fill="rgb(182,199,133)"/>
<rect x="220" y="260" width="4.05" height="4.05" fill="rgb(181,199,133)"/>
<rect x="224" y="260" width="4.05" height="4.05" fill="rgb(180,199,132)"/>
<rect x="228" y="260" width="4.05" height="4.05" fill="rgb(180,199,132)"/>
<rect x="232" y="260" width="4.05" height="4.05" fill="rgb(179,198,131)"/>
<rect x="236" y="260" width="4.05" height="4.05" fill="rgb(179,198,131)"/>
<rect x="240" y="260" width="4.05" height="4.05" fill="rgb(179,198,131)"/>
<rect x="244" y="260" width="4.05" height="4.05" fill="rgb(179,198,131)"/>
<rect x="248" y="260" width="4.05" height="4.05" fill="rgb(178,198,130)"/>
<rect x="252" y="260" width="4.05" height="4.05" fill="rgb(178,198,130)"/>
<rect x="256" y="260" width="4.05" height="4.05" fill="rgb(177,198,130)"/>
<rect x="260" y="260" width="4.05" height="4.05" fill="rgb(177,198,130)"/>
<rect x="264" y="260" width="4.05" height="4.05" fill="rgb(177,198,130)"/>
<rect x="268" y="260" width="4.05" height="4.05" fill="rgb(177,198,130)"/>
<rect x="272" y="260" width="4.05" height="4.05" fill="rgb(178,198,130)"/>
<rect x="276" y="260" width="4.05" height="4.05" fill="rgb(178,198,130)"/>
<rect x="280" y="260" width="4.05" height="4.05" fill="rgb(178,198,130)"/>
<rect x="284" y="260" width="4.05" height="4.05" fill="rgb(178,198,130)"/>
<rect x="200" y="264" width="4.05" height="4.05" fill="rgb(185,200,136)"/>
<rect x="204" y="264" width="4.05" height="4.05" fill="rgb(184,200,136)"/>
<rect x="208" y="264" width="4.05" height="4.05" fill="rgb(184,199,135)"/>
<rect x="212" y="264" width="4.05" height="4.05" fill="rgb(183,199,134)"/>
<rect x="216" y="264" width="4.05" height="4.05" fill="rgb(182,199,133)"/>
<rect x="220" y="264" width="4.05" height="4.05" fill="rgb(181,199,132)"/>
<rect x="224" y="264" width="4.05" height="4.05" fill="rgb(180,199,132)"/>
<rect x="228" y="264" width="4.05" height="4.05" fill="rgb(180,199,132)"/>
<rect x="232" y="264" width="4.05" height="4.05" fill="rgb(179,198,131)"/>
<rect x="236" y="264" width="4.05" height="4.05" fill="rgb(179,198,131)"/>
<rect x="240" y="264" width="4.05" height="4.05" fill="rgb(179,198,131)"/>
<rect x="244" y="264" width="4.05" height="4.05" fill="rgb(179,198,131)"/>
<rect x="248" y="264" width="4.05" height="4.05" fill="rgb(178,198,131)"/>
<rect x="252" y="264" width="4.05" height="4.05" fill="rgb(178,198,130)"/>
<rect x="256" y="264" width="4.05" height="4.05" fill="rgb(178,198,130)"/>
<rect x="260" y="264" width="4.05" height="4.05" fill="rgb(177,198,130)"/>
<rect x="264" y="264" width="4.05" height="4.05" fill="rgb(177,198,130)"/>
<rect x="268" y="264" width="4.05" height="4.05" fill="rgb(178,198,130)"/>
<rect x="272" y="264" width="4.05" height="4.05" fill="rgb(178,198,130)"/>
<rect x="276" y="264" width="4.05" height="4.05" fill="rgb(178,198,131)"/>
<rect x="280" y="264" width="4.05" height="4.05" fill="rgb(179,198,131)"/>
<rect x="284" y="264" width="4.05" height="4.05" fill="rgb(179,198,131)"/>
<rect x="200" y="268" width="4.05" height="4.05" fill="rgb(184,200,135)"/>
<rect x="204" y="268" width="4.05" height="4.05" fill="rgb(184,199,135)"/>
<rect x="208" y="268" width="4.05" height="4.05" fill="rgb(183,199,134)"/>
<rect x="212" y="268" width="4.05" height="4.05" fill="rgb(182,199,134)"/>
<rect x="216" y="268" width="4.05" height="4.05" fill="rgb(181,199,133)"/>
<rect x="220" y="268" width="4.05" height="4.05" fill="rgb(181,199,132)"/>
<rect x="224" y="268" width="4.05" height="4.05" fill="rgb(180,199,132)"/>
<rect x="228" y="268" width="4.05" height="4.05" fill="rgb(180,199,132)"/>
<rect x="232" y="268" width="4.05" height="4.05" fill="rgb(179,198,131)"/>
<rect x="236" y="268" width="4.05" height="4.05" fill="rgb(179,198,131)"/>
<rect x="240" y="268" width="4.05" height="4.05" fill="rgb(179,198,131)"/>
<rect x="244" y="268" width="4.05" height="4.05" fill="rgb(179,198,131)"/>
<rect x="248" y="268" width="4.05" height="4.05" fill="rgb(178,198,131)"/>
<rect x="252" y="268" width="4.05" height="4.05" fill="rgb(178,198,130)"/>
<rect x="256" y="268" width="4.05" height="4.05" fill="rgb(178,198,130)"/>
<rect x="260" y="268" width="4.05" height="4.05" fill="rgb(178,198,130)"/>
<rect x="264" y="268" width="4.05" height="4.05" fill="rgb(178,198,130)"/>
<rect x="268" y="268" width="4.05" height="4.05" fill="rgb(178,198,130)"/>
<rect x="272" y="268" width="4.05" height="4.05" fill="rgb(178,198,131)"/>
<rect x="276" y="268" width="4.05" height="4.05" fill="rgb(179,198,131)"/>
<rect x="280" y="268" width="4.05" height="4.05" fill="rgb(179,198,131)"/>
<rect x="284" y="268" width="4.05" height="4.05" fill="rgb(179,198,131)"/>
<rect x="200" y="272" width="4.05" height="4.05" fill="rgb(183,199,134)"/>
<rect x="204" y="272" width="4.05" height="4.05" fill="rgb(183,199,134)"/>
<rect x="208" y="272" width="4.05" height="4.05" fill="rgb(182,199,134)"/>
<rect x="212" y="272" width="4.05" height="4.05" fill="rgb(182,199,133)"/>
<rect x="216" y="272" width="4.05" height="4.05" fill="rgb(181,199,133)"/>
<rect x="220" y="272" width="4.05" height="4.05" fill="rgb(181,199,132)"/>
<rect x="224" y="272" width="4.05" height="4.05" fill="rgb(180,199,132)"/>
<rect x="228" y="272" width="4.05" height="4.05" fill="rgb(180,199,132)"/>
<rect x="232" y="272" width="4.05" height="4.05" fill="rgb(180,199,132)"/>
<rect x="236" y="272" width="4.05" height="4.05" fill="rgb(179,198,131)"/>
<rect x="240" y="272" width="4.05" height="4.05" fill="rgb(179,198,131)"/>
<rect x="244" y="272" width="4.05" height="4.05" fill="rgb(179,198,131)"/>
<rect x="248" y="272" width="4.05" height="4.05" fill="rgb(178,198,131)"/>
<rect x="252" y="272" width="4.05" height="4.05" fill="rgb(178,198,130)"/>
<rect x="256" y="272" width="4.05" height="4.05" fill="rgb(178,198,130)"/>
<rect x="260" y="272" width="4.05" height="4.05" fill="rgb(178,198,130)"/>
<rect x="264" y="272" width="4.05" height="4.05" fill="rgb(178,198,130)"/>
<rect x="268" y="272" width="4.05" height="4.05" fill="rgb(178,198,130)"/>
<rect x="272" y="272" width="4.05" height="4.05" fill="rgb(179,198,131)"/>
<rect x="276" y="272" width="4.05" height="4.05" fill="rgb(179,198,131)"/>
<rect x="280" y="272" width="4.05" height="4.05" fill="rgb(179,198,131)"/>
<rect x="284" y="272" width="4.05" height="4.05" fill="rgb(179,198,131)"/>
<rect x="200" y="276" width="4.05" height="4.05" fill="rgb(182,199,133)"/>
<rect x="204" y="276" width="4.05" height="4.05" fill="rgb(182,199,133)"/>
<rect x="208" y="276" width="4.05" height="4.05" fill="rgb(182,199,133)"/>
<rect x="212" y="276" width="4.05" height="4.05" fill="rgb(181,199,133)"/>
<rect x="216" y="276" width="4.05" height="4.05" fill="rgb(181,199,133)"/>
<rect x="220" y="276" width="4.05" height="4.05" fill="rgb(181,199,132)"/>
<rect x="224" y="276" width="4.05" height="4.05" fill="rgb(180,199,132)"/>
<rect x="228" y="276" width="4.05" height="4.05" fill="rgb(180,199,132)"/>
<rect x="232" y="276" width="4.05" height="4.05" fill="rgb(180,199,132)"/>
<rect x="236" y="276" width="4.05" height="4.05" fill="rgb(179,198,131)"/>
<rect x="240" y="276" width="4.05" height="4.05" fill="rgb(179,198,131)"/>
<rect x="244" y="276" width="4.05" height="4.05" fill="rgb(179,198,131)"/>
<rect x="248" y="276" width="4.05" height="4.05" fill="rgb(178,198,131)"/>
<rect x="252" y="276" width="4.05" height="4.05" fill="rgb(178,198,130)"/>
<rect x="256" y="276" width="4.05" height="4.05" fill="rgb(178,198,130)"/>
<rect x="260" y="276" width="4.05" height="4.05" fill="rgb(178,198,130)"/>
<rect x="264" y="276" width="4.05" height="4.05" fill="rgb(178,198,130)"/>
<rect x="268" y="276" width="4.05" height="4.05" fill="rgb(178,198,131)"/>
<rect x="272" y="276" width="4.05" height="4.05" fill="rgb(179,198,131)"/>
<rect x="276" y="276" width="4.05" height="4.05" fill="rgb(179,198,131)"/>
<rect x="280" y="276" width="4.05" height="4.05" fill="rgb(180,199,132)"/>
<rect x="284" y="276" width="4.05" height="4.05" fill="rgb(180,199,132)"/>
<rect x="200" y="280" width="4.05" height="4.05" fill="rgb(181,199,133)"/>
<rect x="204" y="280" width="4.05" height="4.05" fill="rgb(181,199,133)"/>
<rect x="208" y="280" width="4.05" height="4.05" fill="rgb(181,199,133)"/>
<rect x="212" y="280" width="4.05" height="4.05" fill="rgb(181,199,133)"/>
<rect x="216" y="280" width="4.05" height="4.05" fill="rgb(181,199,133)"/>
<rect x="220" y="280" width="4.05" height="4.05" fill="rgb(181,199,132)"/>
<rect x="224" y="280" width="4.05" height="4.05" fill="rgb(180,199,132)"/>
<rect x="228" y="280" width="4.05" height="4.05" fill="rgb(180,199,132)"/>
<rect x="232" y="280" width="4.05" height="4.05" fill="rgb(180,199,132)"/>
<rect x="236" y="280" width="4.05" height="4.05" fill="rgb(179,198,131)"/>
<rect x="240" y="280" width="4.05" height="4.05" fill="rgb(179,198,131)"/>
<rect x="244" y="280" width="4.05" height="4.05" fill="rgb(179,198,131)"/>
<rect x="248" y="280" width="4.05" height="4.05" fill="rgb(178,198,131)"/>
<rect x="252" y="280" width="4.05" height="4.05" fill="rgb(178,198,130)"/>
<rect x="256" y="280" width="4.05" height="4.05" fill="rgb(178,198,130)"/>
<rect x="260" y="280" width="4.05" height="4.05" fill="rgb(178,198,130)"/>
<rect x="264" y="280" width="4.05" height="4.05" fill="rgb(178,198,130)"/>
<rect x="268" y="280" width="4.05" height="4.05" fill="rgb(179,198,131)"/>
<rect x="272" y="280" width="4.05" height="4.05" fill="rgb(179,198,131)"/>
<rect x="276" y="280" width="4.05" height="4.05" fill="rgb(179,198,131)"/>
<rect x="280" y="280" width="4.05" height="4.05" fill="rgb(180,199,132)"/>
<rect x="284" y="280" width="4.05" height="4.05" fill="rgb(180,199,132)"/>
<rect x="200" y="284" width="4.05" height="4.05" fill="rgb(180,199,132)"/>
<rect x="204" y="284" width="4.05" height="4.05" fill="rgb(180,199,132)"/>
<rect x="208" y="284" width="4.05" height="4.05" fill="rgb(181,199,132)"/>
<rect x="212" y="284" width="4.05" height="4.05" fill="rgb(181,199,133)"/>
<rect x="216" y="284" width="4.05" height="4.05" fill="rgb(181,199,133)"/>
<rect x="220" y="284" width="4.05" height="4.05" fill="rgb(181,199,132)"/>
<rect x="224" y="284" width="4.05" height="4.05" fill="rgb(180,199,132)"/>
<rect x="228" y="284" width="4.05" height="4.05" fill="rgb(180,199,132)"/>
<rect x="232" y="284" width="4.05" height="4.05" fill="rgb(180,199,132)"/>
<rect x="236" y="284" width="4.05" height="4.05" fill="rgb(179,198,131)"/>
<rect x="240" y="284" width="4.05" height="4.05" fill="rgb(179,198,131)"/>
<rect x="244" y="284" width="4.05" height="4.05" fill="rgb(179,198,131)"/>
<rect x="248" y="284" width="4.05" height="4.05" fill="rgb(178,198,131)"/>
<rect x="252" y="284" width="4.05" height="4.05" fill="rgb(178,198,130)"/>
<rect x="256" y="284" width="4.05" height="4.05" fill="rgb(178,198,130)"/>
<rect x="260" y="284" width="4.05" height="4.05" fill="rgb(178,198,130)"/>
<rect x="264" y="284" width="4.05" height="4.05" fill="rgb(178,198,130)"/>
<rect x="268" y="284" width="4.05" height="4.05" fill="rgb(179,198,131)"/>
<rect x="272" y="284" width="4.05" height="4.05" fill="rgb(179,198,131)"/>
<rect x="276" y="284" width="4.05" height="4.05" fill="rgb(180,199,132)"/>
<rect x="280" y="284" width="4.05" height="4.05" fill="rgb(180,199,132)"/>
<rect x="284" y="284" width="4.05" height="4.05" fill="rgb(180,199,132)"/>
<rect x="200" y="288" width="4.05" height="4.05" fill="rgb(180,199,132)"/>
<rect x="204" y="288" width="4.05" height="4.05" fill="rgb(180,199,132)"/>
<rect x="208" y="288" width="4.05" height="4.05" fill="rgb(180,199,132)"/>
<rect x="212" y="288" width="4.05" height="4.05" fill="rgb(181,199,132)"/>
<rect x="216" y="288" width="4.05" height="4.05" fill="rgb(181,199,132)"/>
<rect x="220" y="288" width="4.05" height="4.05" fill="rgb(181,199,132)"/>
<rect x="224" y="288" width="4.05" height="4.05" fill="rgb(180,199,132)"/>
<rect x="228" y="288" width="4.05" height="4.05" fill="rgb(180,199,132)"/>
<rect x="232" y="288" width="4.05" height="4.05" fill="rgb(180,199,132)"/>
<rect x="236" y="288" width="4.05" height="4.05" fill="rgb(179,198,131)"/>
<rect x="240" y="288" width="4.05" height="4.05" fill="rgb(179,198,131)"/>
<rect x="244" y="288" width="4.05" height="4.05" fill="rgb(179,198,131)"/>
<rect x="248" y="288" width="4.05" height="4.05" fill="rgb(178,198,130)"/>
<rect x="252" y="288" width="4.05" height="4.05" fill="rgb(178,198,130)"/>
<rect x="256" y="288" width="4.05" height="4.05" fill="rgb(178,198,130)"/>
<rect x="260" y="288" width="4.05" height="4.05" fill="rgb(178,198,130)"/>
<rect x="264" y="288" width="4.05" height="4.05" fill="rgb(178,198,130)"/>
<rect x="268" y="288" width="4.05" height="4.05" fill="rgb(179,198,131)"/>
<rect x="272" y="288" width="4.05" height="4.05" fill="rgb(179,198,131)"/>
<rect x="276" y="288" width="4.05" height="4.05" fill="rgb(180,199,132)"/>
<rect x="280" y="288" width="4.05" height="4.05" fill="rgb(180,199,132)"/>
<rect x="284" y="288" width="4.05" height="4.05" fill="rgb(180,199,132)"/>
<rect x="200" y="292" width="4.05" height="4.05" fill="rgb(180,199,132)"/>
<rect x="204" y="292" width="4.05" height="4.05" fill="rgb(180,199,132)"/>
<rect x="208" y="292" width="4.05" height="4.05" fill="rgb(180,199,132)"/>
<rect x="212" y="292" width="4.05" height="4.05" fill="rgb(180,199,132)"/>
<rect x="216" y="292" width="4.05" height="4.05" fill="rgb(180,199,132)"/>
<rect x="220" y="292" width="4.05" height="4.05" fill="rgb(180,199,132)"/>
<rect x="224" y="292" width="4.05" height="4.05" fill="rgb(180,199,132)"/>
<rect x="228" y="292" width="4.05" height="4.05" fill="rgb(180,199,132)"/>
<rect x="232" y="292" width="4.05" height="4.05" fill="rgb(179,198,131)"/>
<rect x="236" y="292" width="4.05" height="4.05" fill="rgb(179,198,131)"/>
<rect x="240" y="292" width="4.05" height="4.05" fill="rgb(179,198,131)"/>
<rect x="244" y="292" width="4.05" height="4.05" fill="rgb(178,198,131)"/>
<rect x="248" y="292" width="4.05" height="4.05" fill="rgb(178,198,130)"/>
<rect x="252" y="292" width="4.05" height="4.05" fill="rgb(178,198,130)"/>
<rect x="256" y="292" width="4.05" height="4.05" fill="rgb(178,198,130)"/>
<rect x="260" y="292" width="4.05" height="4.05" fill="rgb(178,198,130)"/>
<rect x="264" y="292" width="4.05" height="4.05" fill="rgb(178,198,130)"/>
<rect x="268" y="292" width="4.05" height="4.05" fill="rgb(178,198,131)"/>
<rect x="272" y="292" width="4.05" height="4.05" fill="rgb(179,198,131)"/>
<rect x="276" y="292" width="4.05" height="4.05" fill="rgb(180,199,132)"/>
<rect x="280" y="292" width="4.05" height="4.05" fill="rgb(180,199,132)"/>
<rect x="284" y="292" width="4.05" height="4.05" fill="rgb(180,199,132)"/>
<rect x="200" y="296" width="4.05" height="4.05" fill="rgb(180,199,132)"/>
<rect x="204" y="296" width="4.05" height="4.05" fill="rgb(180,199,132)"/>
<rect x="208" y="296" width="4.05" height="4.05" fill="rgb(180,199,132)"/>
<rect x="212" y="296" width="4.05" height="4.05" fill="rgb(180,199,132)"/>
<rect x="216" y="296" width="4.05" height="4.05" fill="rgb(180,199,132)"/>
<rect x="220" y="296" width="4.05" height="4.05" fill="rgb(180,199,132)"/>
<rect x="224" y="296" width="4.05" height="4.05" fill="rgb(180,199,132)"/>
<rect x="228" y="296" width="4.05" height="4.05" fill="rgb(179,198,131)"/>
<rect x="232" y="296" width="4.05" height="4.05" fill="rgb(179,198,131)"/>
<rect x="236" y="296" width="4.05" height="4.05" fill="rgb(179,198,131)"/>
<rect x="240" y="296" width="4.05" height="4.05" fill="rgb(178,198,131)"/>
<rect x="244" y="296" width="4.05" height="4.05" fill="rgb(178,198,130)"/>
<rect x="248" y="296" width="4.05" height="4.05" fill="rgb(178,198,130)"/>
<rect x="252" y="296" width="4.05" height="4.05" fill="rgb(178,198,130)"/>
<rect x="256" y="296" width="4.05" height="4.05" fill="rgb(178,198,130)"/>
<rect x="260" y="296" width="4.05" height="4.05" fill="rgb(178,198,130)"/>
<rect x="264" y="296" width="4.05" height="4.05" fill="rgb(178,198,130)"/>
<rect x="268" y="296" width="4.05" height="4.05" fill="rgb(178,198,131)"/>
<rect x="272" y="296" width="4.05" height="4.05" fill="rgb(179,198,131)"/>
<rect x="276" y="296" width="4.05" height="4.05" fill="rgb(179,198,131)"/>
<rect x="280" y="296" width="4.05" height="4.05" fill="rgb(180,199,132)"/>
<rect x="284" y="296" width="4.05" height="4.05" fill="rgb(180,199,132)"/>
<rect x="200" y="300" width="4.05" height="4.05" fill="rgb(180,199,132)"/>
<rect x="204" y="300" width="4.05" height="4.05" fill="rgb(180,199,132)"/>
<rect x="208" y="300" width="4.05" height="4.05" fill="rgb(180,199,132)"/>
<rect x="212" y="300" width="4.05" height="4.05" fill="rgb(180,199,132)"/>
<rect x="216" y="300" width="4.05" height="4.05" fill="rgb(180,199,132)"/>
<rect x="220" y="300" width="4.05" height="4.05" fill="rgb(179,198,131)"/>
<rect x="224" y="300" width="4.05" height="4.05" fill="rgb(179,198,131)"/>
<rect x="228" y="300" width="4.05" height="4.05" fill="rgb(179,198,131)"/>
<rect x="232" y="300" width="4.05" height="4.05" fill="rgb(179,198,131)"/>
<rect x="236" y="300" width="4.05" height="4.05" fill="rgb(178,198,131)"/>
<rect x="240" y="300" width="4.05" height="4.05" fill="rgb(178,198,130)"/>
<rect x="244" y="300" width="4.05" height="4.05" fill="rgb(178,198,130)"/>
<rect x="248" y="300" width="4.05" height="4.05" fill="rgb(178,198,130)"/>
<rect x="252" y="300" width="4.05" height="4.05" fill="rgb(178,198,130)"/>
<rect x="256" y="300" width="4.05" height="4.05" fill="rgb(178,198,130)"/>
<rect x="260" y="300" width="4.05" height="4.05" fill="rgb(178,198,130)"/>
<rect x="264" y="300" width="4.05" height="4.05" fill="rgb(178,198,130)"/>
<rect x="268" y="300" width="4.05" height="4.05" fill="rgb(179,198,131)"/>
<rect x="272" y="300" width="4.05" height="4.05" fill="rgb(179,198,131)"/>
<rect x="276" y="300" width="4.05" height="4.05" fill="rgb(179,198,131)"/>
<rect x="280" y="300" width="4.05" height="4.05" fill="rgb(180,199,132)"/>
<rect x="284" y="300" width="4.05" height="4.05" fill="rgb(180,199,132)"/>
<rect x="200" y="304" width="4.05" height="4.05" fill="rgb(180,199,132)"/>
<rect x="204" y="304" width="4.05" height="4.05" fill="rgb(180,199,132)"/>
<rect x="208" y="304" width="4.05" height="4.05" fill="rgb(180,199,132)"/>
<rect x="212" y="304" width="4.05" height="4.05" fill="rgb(180,199,132)"/>
<rect x="216" y="304" width="4.05" height="4.05" fill="rgb(179,198,131)"/>
<rect x="220" y="304" width="4.05" height="4.05" fill="rgb(179,198,131)"/>
<rect x="224" y="304" width="4.05" height="4.05" fill="rgb(179,198,131)"/>
<rect x="228" y="304" width="4.05" height="4.05" fill="rgb(178,198,130)"/>
<rect x="232" y="304" width="4.05" height="4.05" fill="rgb(178,198,130)"/>
<rect x="236" y="304" width="4.05" height="4.05" fill="rgb(178,198,130)"/>
<rect x="240" y="304" width="4.05" height="4.05" fill="rgb(178,198,130)"/>
<rect x="244" y="304" width="4.05" height="4.05" fill="rgb(178,198,130)"/>
<rect x="248" y="304" width="4.05" height="4.05" fill="rgb(178,198,131)"/>
<rect x="252" y="304" width="4.05" height="4.05" fill="rgb(178,198,131)"/>
<rect x="256" y="304" width="4.05" height="4.05" fill="rgb(178,198,130)"/>
<rect x="260" y="304" width="4.05" height="4.05" fill="rgb(178,198,130)"/>
<rect x="264" y="304" width="4.05" height="4.05" fill="rgb(178,198,131)"/>
<rect x="268" y="304" width="4.05" height="4.05" fill="rgb(179,198,131)"/>
<rect x="272" y="304" width="4.05" height="4.05" fill="rgb(179,198,131)"/>
<rect x="276" y="304" width="4.05" height="4.05" fill="rgb(180,199,132)"/>
<rect x="280" y="304" width="4.05" height="4.05" fill="rgb(180,199,132)"/>
<rect x="284" y="304" width="4.05" height="4.05" fill="rgb(180,199,132)"/>
<rect x="200" y="308" width="4.05" height="4.05" fill="rgb(180,199,132)"/>
<rect x="204" y="308" width="4.05" height="4.05" fill="rgb(180,199,132)"/>
<rect x="208" y="308" width="4.05" height="4.05" fill="rgb(180,199,132)"/>
<rect x="212" y="308" width="4.05" height="4.05" fill="rgb(180,199,132)"/>
<rect x="216" y="308" width="4.05" height="4.05" fill="rgb(179,198,131)"/>
<rect x="220" y="308" width="4.05" height="4.05" fill="rgb(179,198,131)"/>
<rect x="224" y="308" width="4.05" height="4.05" fill="rgb(178,198,130)"/>
<rect x="228" y="308" width="4.05" height="4.05" fill="rgb(178,198,130)"/>
<rect x="232" y="308" width="4.05" height="4.05" fill="rgb(178,198,130)"/>
<rect x="236" y="308" width="4.05" height="4.05" fill="rgb(178,198,130)"/>
<rect x="240" y="308" width="4.05" height="4.05" fill="rgb(178,198,130)"/>
<rect x="244" y="308" width="4.05" height="4.05" fill="rgb(178,198,131)"/>
<rect x="248" y="308" width="4.05" height="4.05" fill="rgb(179,198,131)"/>
<rect x="252" y="308" width="4.05" height="4.05" fill="rgb(179,198,131)"/>
<rect x="256" y="308" width="4.05" height="4.05" fill="rgb(179,198,131)"/>
<rect x="260" y="308" width="4.05" height="4.05" fill="rgb(178,198,131)"/>
<rect x="264" y="308" width="4.05" height="4.05" fill="rgb(179,198,131)"/>
<rect x="268" y="308" width="4.05" height="4.05" fill="rgb(179,198,131)"/>
<rect x="272" y="308" width="4.05" height="4.05" fill="rgb(179,198,131)"/>
<rect x="276" y="308" width="4.05" height="4.05" fill="rgb(180,199,132)"/>
<rect x="280" y="308" width="4.05" height="4.05" fill="rgb(180,199,132)"/>
<rect x="284" y="308" width="4.05" height="4.05" fill="rgb(180,199,132)"/>
<rect x="200" y="312" width="4.05" height="4.05" fill="rgb(181,199,133)"/>
<rect x="204" y="312" width="4.05" height="4.05" fill="rgb(180,199,132)"/>
<rect x="208" y="312" width="4.05" height="4.05" fill="rgb(180,199,132)"/>
<rect x="212" y="312" width="4.05" height="4.05" fill="rgb(180,199,132)"/>
<rect x="216" y="312" width="4.05" height="4.05" fill="rgb(179,198,131)"/>
<rect x="220" y="312" width="4.05" height="4.05" fill="rgb(178,198,131)"/>
<rect x="224" y="312" width="4.05" height="4.05" fill="rgb(178,198,130)"/>
<rect x="228" y="312" width="4.05" height="4.05" fill="rgb(178,198,130)"/>
<rect x="232" y="312" width="4.05" height="4.05" fill="rgb(178,198,130)"/>
<rect x="236" y="312" width="4.05" height="4.05" fill="rgb(178,198,130)"/>
<rect x="240" y="312" width="4.05" height="4.05" fill="rgb(178,198,130)"/>
<rect x="244" y="312" width="4.05" height="4.05" fill="rgb(179,198,131)"/>
<rect x="248" y="312" width="4.05" height="4.05" fill="rgb(179,198,131)"/>
<rect x="252" y="312" width="4.05" height="4.05" fill="rgb(179,198,131)"/>
<rect x="256" y="312" width="4.05" height="4.05" fill="rgb(179,198,131)"/>
<rect x="260" y="312" width="4.05" height="4.05" fill="rgb(179,198,131)"/>
<rect x="264" y="312" width="4.05" height="4.05" fill="rgb(179,198,131)"/>
<rect x="268" y="312" width="4.05" height="4.05" fill="rgb(179,198,131)"/>
<rect x="272" y="312" width="4.05" height="4.05" fill="rgb(180,199,132)"/>
<rect x="276" y="312" width="4.05" height="4.05" fill="rgb(180,199,132)"/>
<rect x="280" y="312" width="4.05" height="4.05" fill="rgb(180,199,132)"/>
<rect x="284" y="312" width="4.05" height="4.05" fill="rgb(180,199,132)"/>
<rect x="200" y="316" width="4.05" height="4.05" fill="rgb(181,199,133)"/>
<rect x="204" y="316" width="4.05" height="4.05" fill="rgb(181,199,133)"/>
<rect x="208" y="316" width="4.05" height="4.05" fill="rgb(180,199,132)"/>
<rect x="212" y="316" width="4.05" height="4.05" fill="rgb(180,199,132)"/>
<rect x="216" y="316" width="4.05" height="4.05" fill="rgb(179,198,131)"/>
<rect x="220" y="316" width="4.05" height="4.05" fill="rgb(178,198,131)"/>
<rect x="224" y="316" width="4.05" height="4.05" fill="rgb(178,198,130)"/>
<rect x="228" y="316" width="4.05" height="4.05" fill="rgb(178,198,130)"/>
<rect x="232" y="316" width="4.05" height="4.05" fill="rgb(178,198,130)"/>
<rect x="236" y="316" width="4.05" height="4.05" fill="rgb(178,198,130)"/>
<rect x="240" y="316" width="4.05" height="4.05" fill="rgb(178,198,131)"/>
<rect x="244" y="316" width="4.05" height="4.05" fill="rgb(179,198,131)"/>
<rect x="248" y="316" width="4.05" height="4.05" fill="rgb(179,198,131)"/>
<rect x="252" y="316" width="4.05" height="4.05" fill="rgb(179,198,131)"/>
<rect x="256" y="316" width="4.05" height="4.05" fill="rgb(179,198,131)"/>
<rect x="260" y="316" width="4.05" height="4.05" fill="rgb(179,198,131)"/>
<rect x="264" y="316" width="4.05" height="4.05" fill="rgb(179,198,131)"/>
<rect x="268" y="316" width="4.05" height="4.05" fill="rgb(180,199,132)"/>
<rect x="272" y="316" width="4.05" height="4.05" fill="rgb(180,199,132)"/>
<rect x="276" y="316" width="4.05" height="4.05" fill="rgb(180,199,132)"/>
<rect x="280" y="316" width="4.05" height="4.05" fill="rgb(180,199,132)"/>
<rect x="284" y="316" width="4.05" height="4.05" fill="rgb(180,199,132)"/>
<rect x="200" y="320" width="4.05" height="4.05" fill="rgb(181,199,133)"/>
<rect x="204" y="320" width="4.05" height="4.05" fill="rgb(181,199,133)"/>
<rect x="208" y="320" width="4.05" height="4.05" fill="rgb(181,199,132)"/>
<rect x="212" y="320" width="4.05" height="4.05" fill="rgb(180,199,132)"/>
<rect x="216" y="320" width="4.05" height="4.05" fill="rgb(179,198,131)"/>
<rect x="220" y="320" width="4.05" height="4.05" fill="rgb(179,198,131)"/>
<rect x="224" y="320" width="4.05" height="4.05" fill="rgb(178,198,130)"/>
<rect x="228" y="320" width="4.05" height="4.05" fill="rgb(178,198,130)"/>
<rect x="232" y="320" width="4.05" height="4.05" fill="rgb(178,198,130)"/>
<rect x="236" y="320" width="4.05" height="4.05" fill="rgb(178,198,131)"/>
<rect x="240" y="320" width="4.05" height="4.05" fill="rgb(179,198,131)"/>
<rect x="244" y="320" width="4.05" height="4.05" fill="rgb(179,198,131)"/>
<rect x="248" y="320" width="4.05" height="4.05" fill="rgb(180,199,132)"/>
<rect x="252" y="320" width="4.05" height="4.05" fill="rgb(180,199,132)"/>
<rect x="256" y="320" width="4.05" height="4.05" fill="rgb(180,199,132)"/>
<rect x="260" y="320" width="4.05" height="4.05" fill="rgb(179,198,131)"/>
<rect x="264" y="320" width="4.05" height="4.05" fill="rgb(180,199,132)"/>
<rect x="268" y="320" width="4.05" height="4.05" fill="rgb(180,199,132)"/>
<rect x="272" y="320" width="4.05" height="4.05" fill="rgb(180,199,132)"/>
<rect x="276" y="320" width="4.05" height="4.05" fill="rgb(180,199,132)"/>
<rect x="280" y="320" width="4.05" height="4.05" fill="rgb(180,199,132)"/>
<rect x="284" y="320" width="4.05" height="4.05" fill="rgb(180,199,132)"/>
<rect x="200" y="324" width="4.05" height="4.05" fill="rgb(182,199,134)"/>
<rect x="204" y="324" width="4.05" height="4.05" fill="rgb(182,199,133)"/>
<rect x="208" y="324" width="4.05" height="4.05" fill="rgb(181,199,133)"/>
<rect x="212" y="324" width="4.05" height="4.05" fill="rgb(181,199,132)"/>
<rect x="216" y="324" width="4.05" height="4.05" fill="rgb(180,199,132)"/>
<rect x="220" y="324" width="4.05" height="4.05" fill="rgb(179,198,131)"/>
<rect x="224" y="324" width="4.05" height="4.05" fill="rgb(179,198,131)"/>
<rect x="228" y="324" width="4.05" height="4.05" fill="rgb(178,198,131)"/>
<rect x="232" y="324" width="4.05" height="4.05" fill="rgb(179,198,131)"/>
<rect x="236" y="324" width="4.05" height="4.05" fill="rgb(179,198,131)"/>
<rect x="240" y="324" width="4.05" height="4.05" fill="rgb(179,198,131)"/>
<rect x="244" y="324" width="4.05" height="4.05" fill="rgb(180,199,132)"/>
<rect x="248" y="324" width="4.05" height="4.05" fill="rgb(180,199,132)"/>
<rect x="252" y="324" width="4.05" height="4.05" fill="rgb(180,199,132)"/>
<rect x="256" y="324" width="4.05" height="4.05" fill="rgb(180,199,132)"/>
<rect x="260" y="324" width="4.05" height="4.05" fill="rgb(180,199,132)"/>
<rect x="264" y="324" width="4.05" height="4.05" fill="rgb(180,199,132)"/>
<rect x="268" y="324" width="4.05" height="4.05" fill="rgb(180,199,132)"/>
<rect x="272" y="324" width="4.05" height="4.05" fill="rgb(180,199,132)"/>
<rect x="276" y="324" width="4.05" height="4.05" fill="rgb(180,199,132)"/>
<rect x="280" y="324" width="4.05" height="4.05" fill="rgb(180,199,132)"/>
<rect x="284" y="324" width="4.05" height="4.05" fill="rgb(180,199,132)"/>
<rect x="200" y="328" width="4.05" height="4.05" fill="rgb(183,199,134)"/>
<rect x="204" y="328" width="4.05" height="4.05" fill="rgb(182,199,134)"/>
<rect x="208" y="328" width="4.05" height="4.05" fill="rgb(182,199,134)"/>
<rect x="212" y="328" width="4.05" height="4.05" fill="rgb(181,199,133)"/>
<rect x="216" y="328" width="4.05" height="4.05" fill="rgb(181,199,132)"/>
<rect x="220" y="328" width="4.05" height="4.05" fill="rgb(180,199,132)"/>
<rect x="224" y="328" width="4.05" height="4.05" fill="rgb(179,198,131)"/>
<rect x="228" y="328" width="4.05" height="4.05" fill="rgb(179,198,131)"/>
<rect x="232" y="328" width="4.05" height="4.05" fill="rgb(179,198,131)"/>
<rect x="236" y="328" width="4.05" height="4.05" fill="rgb(179,198,131)"/>
<rect x="240" y="328" width="4.05" height="4.05" fill="rgb(180,199,132)"/>
<rect x="244" y="328" width="4.05" height="4.05" fill="rgb(180,199,132)"/>
<rect x="248" y="328" width="4.05" height="4.05" fill="rgb(180,199,132)"/>
<rect x="252" y="328" width="4.05" height="4.05" fill="rgb(180,199,132)"/>
<rect x="256" y="328" width="4.05" height="4.05" fill="rgb(180,199,132)"/>
<rect x="260" y="328" width="4.05" height="4.05" fill="rgb(180,199,132)"/>
<rect x="264" y="328" width="4.05" height="4.05" fill="rgb(180,199,132)"/>
<rect x="268" y="328" width="4.05" height="4.05" fill="rgb(180,199,132)"/>
<rect x="272" y="328" width="4.05" height="4.05" fill="rgb(180,199,132)"/>
<rect x="276" y="328" width="4.05" height="4.05" fill="rgb(180,199,132)"/>
<rect x="280" y="328" width="4.05" height="4.05" fill="rgb(180,199,132)"/>
<rect x="284" y="328" width="4.05" height="4.05" fill="rgb(180,199,132)"/>
<rect x="200" y="332" width="4.05" height="4.05" fill="rgb(184,199,135)"/>
<rect x="204" y="332" width="4.05" height="4.05" fill="rgb(183,199,135)"/>
<rect x="208" y="332" width="4.05" height="4.05" fill="rgb(183,199,134)"/>
<rect x="212" y="332" width="4.05" height="4.05" fill="rgb(182,199,134)"/>
<rect x="216" y="332" width="4.05" height="4.05" fill="rgb(181,199,133)"/>
<rect x="220" y="332" width="4.05" height="4.05" fill="rgb(181,199,133)"/>
<rect x="224" y="332" width="4.05" height="4.05" fill="rgb(180,199,132)"/>
<rect x="228" y="332" width="4.05" height="4.05" fill="rgb(180,199,132)"/>
<rect x="232" y="332" width="4.05" height="4.05" fill="rgb(180,199,132)"/>
<rect x="236" y="332" width="4.05" height="4.05" fill="rgb(180,199,132)"/>
<rect x="240" y="332" width="4.05" height="4.05" fill="rgb(180,199,132)"/>
<rect x="244" y="332" width="4.05" height="4.05" fill="rgb(180,199,132)"/>
<rect x="248" y="332" width="4.05" height="4.05" fill="rgb(180,199,132)"/>
<rect x="252" y="332" width="4.05" height="4.05" fill="rgb(180,199,132)"/>
<rect x="256" y="332" width="4.05" height="4.05" fill="rgb(180,199,132)"/>
<rect x="260" y="332" width="4.05" height="4.05" fill="rgb(180,199,132)"/>
<rect x="264" y="332" width="4.05" height="4.05" fill="rgb(180,199,132)"/>
<rect x="268" y="332" width="4.05" height="4.05" fill="rgb(180,199,132)"/>
<rect x="272" y="332" width="4.05" height="4.05" fill="rgb(180,199,132)"/>
<rect x="276" y="332" width="4.05" height="4.05" fill="rgb(179,198,131)"/>
<rect x="280" y="332" width="4.05" height="4.05" fill="rgb(179,198,131)"/>
<rect x="284" y="332" width="4.05" height="4.05" fill="rgb(179,198,131)"/>
<rect x="174.5" y="222.5" width="144" height="144" fill="none" stroke="#6f7f5f" stroke-width="0.22499999999999998" stroke-dasharray="1.2 0.75"/>
<rect x="174.5" y="222.5" width="25.5" height="33" fill="none" stroke="#6f7f5f" stroke-opacity="0.35" stroke-width="0.15"/>
<rect x="200" y="222.5" width="25" height="33" fill="none" stroke="#6f7f5f" stroke-opacity="0.35" stroke-width="0.15"/>
<rect x="174.5" y="255.5" width="24.5" height="24.5" fill="none" stroke="#6f7f5f" stroke-opacity="0.35" stroke-width="0.15"/>
<rect x="199" y="255.5" width="26" height="24.5" fill="none" stroke="#6f7f5f" stroke-opacity="0.35" stroke-width="0.15"/>
<rect x="174.5" y="280" width="24.5" height="37" fill="none" stroke="#6f7f5f" stroke-opacity="0.35" stroke-width="0.15"/>
<rect x="199" y="280" width="26" height="37" fill="none" stroke="#6f7f5f" stroke-opacity="0.35" stroke-width="0.15"/>
<rect x="174.5" y="317" width="24.5" height="25" fill="none" stroke="#6f7f5f" stroke-opacity="0.35" stroke-width="0.15"/>
<rect x="174.5" y="342" width="24.5" height="24.5" fill="none" stroke="#6f7f5f" stroke-opacity="0.35" stroke-width="0.15"/>
<rect x="199" y="317" width="26" height="25.5" fill="none" stroke="#6f7f5f" stroke-opacity="0.35" stroke-width="0.15"/>
<rect x="199" y="342.5" width="26" height="24" fill="none" stroke="#6f7f5f" stroke-opacity="0.35" stroke-width="0.15"/>
<rect x="225" y="222.5" width="37" height="45.5" fill="none" stroke="#6f7f5f" stroke-opacity="0.35" stroke-width="0.15"/>
<rect x="262" y="222.5" width="25.5" height="45.5" fill="none" stroke="#6f7f5f" stroke-opacity="0.35" stroke-width="0.15"/>
<rect x="287.5" y="222.5" width="31" height="45.5" fill="none" stroke="#6f7f5f" stroke-opacity="0.35" stroke-width="0.15"/>
<rect x="225" y="268" width="32.5" height="38.5" fill="none" stroke="#6f7f5f" stroke-opacity="0.8" stroke-width="0.15"/>
<rect x="257.5" y="268" width="25" height="38.5" fill="none" stroke="#6f7f5f" stroke-opacity="0.35" stroke-width="0.15"/>
<rect x="282.5" y="268" width="36" height="38.5" fill="none" stroke="#6f7f5f" stroke-opacity="0.35" stroke-width="0.15"/>
<rect x="225" y="306.5" width="40" height="33.5" fill="none" stroke="#6f7f5f" stroke-opacity="0.35" stroke-width="0.15"/>
<rect x="225" y="340" width="40" height="26.5" fill="none" stroke="#6f7f5f" stroke-opacity="0.35" stroke-width="0.15"/>
<rect x="265" y="306.5" width="25.5" height="33" fill="none" stroke="#6f7f5f" stroke-opacity="0.35" stroke-width="0.15"/>
<rect x="290.5" y="306.5" width="28" height="33" fill="none" stroke="#6f7f5f" stroke-opacity="0.35" stroke-width="0.15"/>
<rect x="265" y="339.5" width="29" height="27" fill="none" stroke="#6f7f5f" stroke-opacity="0.35" stroke-width="0.15"/>
<rect x="294" y="339.5" width="24.5" height="27" fill="none" stroke="#6f7f5f" stroke-opacity="0.35" stroke-width="0.15"/>
<polyline points="286,510 274,498 274,410 266,402 266,378 250,362 250,314 246,310 246,306.5" fill="none" stroke="#3b3d41" stroke-width="7.3" stroke-linejoin="round" stroke-linecap="round"/>
<polyline points="286,510 274,498 274,410 266,402 266,378 250,362 250,314 246,310 246,306.5" fill="none" stroke="#55585d" stroke-width="6.5" stroke-linejoin="round" stroke-linecap="round"/>
<polyline points="246,306.5 239.5,306.5 239.5,303.5" fill="none" stroke="#c9b89a" stroke-width="1.5" stroke-linejoin="round" stroke-linecap="round"/>
<circle cx="226.543" cy="316.988" r="2.2" fill="#3f7a3a" fill-opacity="0.85"><title>willow</title></circle>
<circle cx="203.872" cy="248.496" r="2.2" fill="#3f7a3a" fill-opacity="0.85"><title>oak tree</title></circle>
<circle cx="251.748" cy="255.544" r="2.2" fill="#3f7a3a" fill-opacity="0.85"><title>willow</title></circle>
<circle cx="214.125" cy="329.413" r="1.1" fill="#6e9a4c" fill-opacity="0.85"><title>shrub</title></circle>
<circle cx="264.976" cy="304.826" r="2.2" fill="#3f7a3a" fill-opacity="0.85"><title>oak tree</title></circle>
<circle cx="267.744" cy="282.894" r="2.2" fill="#3f7a3a" fill-opacity="0.85"><title>willow</title></circle>
<circle cx="278.087" cy="288.372" r="2.2" fill="#3f7a3a" fill-opacity="0.85"><title>oak tree</title></circle>
<circle cx="202.469" cy="276.838" r="1.1" fill="#6e9a4c" fill-opacity="0.85"><title>shrub</title></circle>
<circle cx="259.087" cy="265.236" r="2.2" fill="#3f7a3a" fill-opacity="0.85"><title>willow</title></circle>
<circle cx="213.525" cy="315.299" r="2.2" fill="#3f7a3a" fill-opacity="0.85"><title>oak tree</title></circle>
<circle cx="273.775" cy="247.474" r="2.2" fill="#3f7a3a" fill-opacity="0.85"><title>willow</title></circle>
<circle cx="207.177" cy="287.322" r="2.2" fill="#3f7a3a" fill-opacity="0.85"><title>oak tree</title></circle>
<circle cx="226.333" cy="247.456" r="2.2" fill="#3f7a3a" fill-opacity="0.85"><title>oak tree</title></circle>
<circle cx="284.852" cy="324.498" r="2.2" fill="#3f7a3a" fill-opacity="0.85"><title>oak tree</title></circle>
<circle cx="197.889" cy="310.357" r="1.1" fill="#6e9a4c" fill-opacity="0.85"><title>shrub</title></circle>
<circle cx="274.432" cy="259.272" r="2.2" fill="#3f7a3a" fill-opacity="0.85"><title>willow</title></circle>
<circle cx="216.237" cy="303.3" r="2.2" fill="#3f7a3a" fill-opacity="0.85"><title>oak tree</title></circle>
<circle cx="223.619" cy="261.015" r="2.2" fill="#3f7a3a" fill-opacity="0.85"><title>oak tree</title></circle>
<circle cx="279.562" cy="270.941" r="2.2" fill="#3f7a3a" fill-opacity="0.85"><title>oak tree</title></circle>
<circle cx="240.725" cy="255.388" r="2.2" fill="#3f7a3a" fill-opacity="0.85"><title>oak tree</title></circle>
<circle cx="253.779" cy="307.422" r="2.2" fill="#3f7a3a" fill-opacity="0.85"><title>willow</title></circle>
<circle cx="214.008" cy="270.728" r="2.2" fill="#3f7a3a" fill-opacity="0.85"><title>oak tree</title></circle>
<circle cx="276.873" cy="309.474" r="2.2" fill="#3f7a3a" fill-opacity="0.85"><title>oak tree</title></circle>
<circle cx="205.293" cy="301.54" r="1.1" fill="#6e9a4c" fill-opacity="0.85"><title>shrub</title></circle>
<circle cx="263.097" cy="319.974" r="2.2" fill="#3f7a3a" fill-opacity="0.85"><title>oak tree</title></circle>
<circle cx="257.667" cy="334.239" r="2.2" fill="#3f7a3a" fill-opacity="0.85"><title>oak tree</title></circle>
<rect x="232.5" y="291.5" width="12.5" height="12" fill="#e9e4da" stroke="#4a4540" stroke-width="0.3"/>
<rect x="232.5" y="299.5" width="12.5" height="4" fill="#f6f1e7" fill-opacity="1" stroke="#4a4540" stroke-width="0.15"><title>hallway (bldg-1-L0-hall, built)</title></rect>
<rect x="238.5" y="291.5" width="2" height="8" fill="#f6f1e7" fill-opacity="1" stroke="#4a4540" stroke-width="0.15"><title>hallway (bldg-1-L0-corridor, built)</title></rect>
<rect x="232.5" y="299.5" width="2" height="4" fill="none" fill-opacity="1" stroke="#4a4540" stroke-width="0.15" stroke-dasharray="0.44999999999999996 0.3"><title>stair core (bldg-1-L0-stair, reserved)</title></rect>
<rect x="240.5" y="294" width="4.5" height="5.5" fill="#f3d9a4" fill-opacity="1" stroke="#4a4540" stroke-width="0.15"><title>engineering workshop (room-1, built)</title></rect>
<rect x="240.5" y="291.5" width="4.5" height="2.5" fill="#e7b8b0" fill-opacity="1" stroke="#4a4540" stroke-width="0.15"><title>server room (room-2, built)</title></rect>
<rect x="232.5" y="297" width="6" height="2.5" fill="#f3d9a4" fill-opacity="1" stroke="#4a4540" stroke-width="0.15"><title>operations room (room-3, built)</title></rect>
<rect x="232.5" y="294.5" width="6" height="2.5" fill="#f3d9a4" fill-opacity="1" stroke="#4a4540" stroke-width="0.15"><title>meeting room (room-4, built)</title></rect>
<rect x="232.5" y="291.5" width="6" height="3" fill="#f3d9a4" fill-opacity="1" stroke="#4a4540" stroke-width="0.15"><title>review and test bench (room-5, built)</title></rect>
<line x1="240.5" y1="299.5" x2="238.5" y2="299.5" stroke="#f6f1e7" stroke-width="0.44999999999999996"/>
<line x1="240.5" y1="297.13" x2="240.5" y2="295.87" stroke="#ffffff" stroke-width="0.44999999999999996"/>
<line x1="240.5" y1="293.13" x2="240.5" y2="291.87" stroke="#ffffff" stroke-width="0.44999999999999996"/>
<line x1="238.5" y1="298.63" x2="238.5" y2="297.37" stroke="#ffffff" stroke-width="0.44999999999999996"/>
<line x1="238.5" y1="296.13" x2="238.5" y2="294.87" stroke="#ffffff" stroke-width="0.44999999999999996"/>
<line x1="238.5" y1="293.63" x2="238.5" y2="292.37" stroke="#ffffff" stroke-width="0.44999999999999996"/>
<line x1="240.2" y1="303.5" x2="238.8" y2="303.5" stroke="#ffffff" stroke-width="0.44999999999999996"/>
<text x="242.75" y="292.75" font-size="0.67" text-anchor="middle" dominant-baseline="middle" fill="#2a2622">server room</text>
<text x="235.5" y="298.25" font-size="0.65" text-anchor="middle" dominant-baseline="middle" fill="#2a2622">operations room</text>
<text x="235.5" y="295.75" font-size="0.8" text-anchor="middle" dominant-baseline="middle" fill="#2a2622">meeting room</text>
</svg>